<svg width="85" height="27" viewBox="0 0 85 27" fill="none" xmlns="http://www.w3.org/2000/svg">
<g clip-path="url(#clip0_1878_297)">
<path fill-rule="evenodd" clip-rule="evenodd" d="M75.2909 13.8125C75.2909 10.8448 77.4892 9.12284 80.2371 9.12284C82.2888 9.12284 84.1207 10.1121 85 12.5668C84.7435 13.8125 83.2047 15.2047 82.5453 15.4246C81.9957 14.2522 81.3728 13.556 80.7866 13.556C80.0539 13.556 80.0172 14.069 80.0172 14.7284C80.0172 15.1955 80.151 15.8834 80.3119 16.7112C80.5549 17.9615 80.8599 19.5309 80.8599 21.1401C80.8599 24.0711 78.8082 26.2328 75.6573 26.2328C72.7721 26.2328 71.1778 24.3414 70.4665 21.3198C68.5818 24.6972 65.8257 26.2328 63.7134 26.2328C60.411 26.2328 59.6338 23.7919 59.7121 21.3161C58.3852 23.6612 55.831 26.2328 53.3815 26.2328C50.8809 26.2328 49.9976 24.0563 50.2002 21.5215C48.702 24.3122 45.9919 26.2328 43.3793 26.2328C40.5442 26.2328 39.141 23.9806 39.5951 21.189C37.6878 23.5333 34.1374 26.2328 30.4461 26.2328C26.2373 26.2328 24.4053 23.9632 24.1882 21.1193C22.1568 24.375 19.4187 26.3427 16.1573 26.3427C11.4493 26.3427 9.76537 22.1561 9.52032 18.7315C7.77547 21.0681 5.81377 23.4923 3.40733 26.1961C3.15086 26.4526 2.93103 26.5991 2.67457 26.5991C1.8319 26.5991 0.109914 22.8621 0 21.4698C0.723099 20.3478 5.28119 15.3398 8.95093 11.3079C10.2409 9.89066 11.4211 8.594 12.2863 7.6291C10.0389 8.30726 7.72169 9.65975 4.79957 11.7608C4.28664 12.1272 2.85776 8.7931 2.8944 6.22845C6.26509 3.73707 11.3944 2.16164 15.5345 2.16164C21.3233 2.16164 24.6573 5.38578 24.6573 9.8556C24.6573 13.5927 21.5431 17.6961 17 17.8427C14.6377 17.904 13.1237 16.578 12.3494 14.9405C12.4419 17.473 13.7587 20.5905 17.2931 20.5905C21.1462 20.5905 22.9965 18.2646 25.7559 14.7958C25.9352 14.5704 26.1183 14.3403 26.306 14.1056C28.6509 11.2112 31.3621 8.64655 35.319 8.64655C37.7371 8.64655 39.3858 10.1487 39.3858 12.4203C39.3858 15.1681 36.1616 18.9784 31.6552 18.9784C30.8855 18.9784 30.1839 18.877 29.5917 18.6766C29.5768 18.7921 29.5668 18.9058 29.5668 19.0151C29.5668 20.2974 30.0431 21.0668 32.1315 21.0668C35.2091 21.0668 38.1034 19.2349 41.6207 14.9483C45.0647 10.7349 47.6659 8.90302 50.4138 8.90302C52.2687 8.90302 53.6765 9.90832 54.2969 11.6014C57.9796 6.28253 61.1038 2.51388 63.75 0C66.3513 1.09914 68.2198 3.26078 67.7069 3.70043C65.7651 5.45905 59.2802 12.5302 56.7155 16.7435C56.056 17.8427 55.4332 19.0517 55.4332 19.6379C55.4332 20.1875 55.7629 20.3707 56.1293 20.3707C57.8898 20.3707 61.4176 16.2147 64.4645 12.6253C65.6026 11.2845 66.6736 10.0228 67.5603 9.08621C69.6121 9.92888 71.7004 11.7241 71.1875 12.347C68.4763 15.5711 66.4246 18.2091 66.4246 19.7112C66.4246 20.1142 66.5711 20.3707 67.1207 20.3707C68.1466 20.3707 69.0991 19.4547 70.6746 17.5129C71.0043 17.1099 71.4073 17.1099 71.6638 17.7328C72.3599 19.4181 73.3858 20.3341 74.1918 20.3341C75.1444 20.3341 75.6207 19.4914 75.6207 18.2091C75.6207 17.3327 75.5137 16.3138 75.4217 15.4365C75.3521 14.7733 75.2909 14.191 75.2909 13.8125ZM16.194 13.3362C18.1358 13.3362 20.2608 12.2737 20.2608 10.1121C20.2608 8.80024 19.4466 7.59084 17.2708 7.22257C17.156 7.40192 17.042 7.58017 16.9287 7.75739C15.8231 9.4858 14.7804 11.116 13.7281 12.7095C14.3586 13.0636 15.156 13.3362 16.194 13.3362ZM35.8319 13.9957C35.8319 13.4095 35.4655 13.0065 34.8793 13.0065C33.4094 13.0065 31.1923 15.0693 30.149 17.0613C30.5341 17.2101 30.9862 17.2931 31.472 17.2931C34.0733 17.2931 35.8319 15.3147 35.8319 13.9957ZM45.4677 19.3082C45.4677 19.9677 45.834 20.4073 46.6034 20.4073C48.9849 20.4073 51.9526 16.0841 51.9526 14.3254C51.9526 13.5927 51.5496 13.153 50.8901 13.153C48.7285 13.153 45.4677 17.2565 45.4677 19.3082ZM76.0599 6.08207C75.2172 7.47431 73.9349 9.04974 73.4586 9.52603C71.2603 8.61008 69.2086 6.77819 69.5017 6.26525C70.3077 4.83638 71.6267 3.29758 72.103 2.82129C74.3012 3.73724 76.353 5.60577 76.0599 6.08207Z" fill="#FF4438"/>
</g>
<defs>
<clipPath id="clip0_1878_297">
<rect width="85" height="26.5991" fill="white"/>
</clipPath>
</defs>
</svg>
