<?xml version="1.0" standalone="no"?>
<!DOCTYPE svg PUBLIC "-//W3C//DTD SVG 1.0//EN" "http://www.w3.org/TR/2001/REC-SVG-20010904/DTD/svg10.dtd">
<svg xmlns="http://www.w3.org/2000/svg" xmlns:xlink="http://www.w3.org/1999/xlink" id="body_1" width="70" height="52">

<defs>
                <clipPath  id="1">

                    <path clip-rule="evenodd" transform="matrix(1 0 0 1 0.01 0.01)"  d="M0 0L146.42 0L146.42 125.48L0 125.48z" />                </clipPath>
</defs>

<g transform="matrix(0.41404575 0 0 0.41404575 4.689784 -0)">
	<g>
		<g>
			<g clip-path="url(#1)" >
                <path transform="matrix(1 0 0 1 0.01 0.01)"  d="M140.66 96.74C 132.86 100.82 92.380005 117.47 83.66 122.03999C 74.94 126.609985 70.270004 126.479996 63.450005 123.21999C 56.630005 119.95999 13.7 102.5 5.92 98.78C 2 96.94 0 95.37 0 93.9L0 93.9L0 79.09C 0 79.09 56.08 66.92 65.13 63.64C 74.17999 60.36 77.31 60.28 85 63.1C 92.69 65.92 138.79 74.24 146.4 77L146.4 77L146.4 91.6C 146.4 93.119995 144.65 94.6 140.65999 96.729996L140.65999 96.729996L140.66 96.74z" stroke="none" fill="#A32422" fill-rule="nonzero" />
                <path transform="matrix(1 0 0 1 0.01 0.01)"  d="M140.66 82C 132.86 86.06 92.380005 102.71 83.66 107.2C 74.94 111.689995 70.270004 111.649994 63.450005 108.399994C 56.630005 105.149994 13.7 87.69 5.92 84C -1.8599997 80.31 -2.0099998 77.73 5.62 74.75C 13.25 71.77 56.08 55 65.13 51.7C 74.17999 48.4 77.31 48.33 85 51.16C 92.69 53.989998 133 70 140.57 72.79C 148.14001 75.58 148.49 77.87 140.66 81.92L140.66 81.92L140.66 82z" stroke="none" fill="#DC382C" fill-rule="nonzero" />
                <path transform="matrix(1 0 0 1 0.01 0.01)"  d="M140.66 72.62C 132.86 76.69 92.380005 93.33 83.66 97.82001C 74.94 102.31001 70.31 102.27 63.49 99C 56.670006 95.73 13.7 78.37 5.92 74.66C 2 72.8 0 71.24 0 69.76L0 69.76L0 55C 0 55 56.08 42.79 65.13 39.51C 74.17999 36.229996 77.31 36.14 85 39C 92.69 41.86 138.79 50.1 146.4 52.88L146.4 52.88L146.4 67.48C 146.4 69 144.65 70.52 140.66 72.62z" stroke="none" fill="#A32422" fill-rule="nonzero" />
                <path transform="matrix(1 0 0 1 0.01 0.01)"  d="M140.66 57.81C 132.86 61.89 92.380005 78.53 83.66 83.020004C 74.94 87.51001 70.270004 87.48 63.450005 84.22C 56.630005 80.96 13.7 63.57 5.92 59.85C -1.8599997 56.129997 -2 53.6 5.62 50.62C 13.24 47.64 56.079998 30.829998 65.13 27.619999C 74.17999 24.41 77.31 24.21 85 27C 92.69 29.79 133 45.94 140.57 48.65C 148.14001 51.360004 148.49 53.74 140.66 57.780003L140.66 57.780003L140.66 57.81z" stroke="none" fill="#DC382C" fill-rule="nonzero" />
                <path transform="matrix(1 0 0 1 0.01 0.01)"  d="M140.66 47.59C 132.86 51.67 92.380005 68.32 83.66 72.8C 74.94 77.28001 70.31 77.25 63.49 74C 56.670006 70.75 13.7 53.34 5.92 49.63C 2 47.79 0 46.22 0 44.74L0 44.74L0 29.93C 0 29.93 56.08 17.76 65.13 14.49C 74.17999 11.219999 77.31 11.12 85 13.94C 92.69 16.759998 138.77 25.08 146.38 27.86L146.38 27.86L146.38 42.46C 146.4 44 144.65 45.5 140.66 47.59z" stroke="none" fill="#A32422" fill-rule="nonzero" />
                <path transform="matrix(1 0 0 1 0.01 0.01)"  d="M140.66 32.8C 132.86 36.8 92.380005 53.55 83.66 58C 74.94 62.45 70.270004 62.44 63.450005 59.2C 56.630005 55.960003 13.7 38.53 5.92 34.83C -1.8599997 31.130005 -2.0099998 28.560001 5.62 25.580002C 13.25 22.600002 56.08 5.8 65.13 2.54C 74.17999 -0.72000027 77.31 -0.82 85 2C 92.69 4.8199997 133 20.85 140.57 23.63C 148.14001 26.409998 148.49 28.72 140.66 32.77L140.66 32.77L140.66 32.8z" stroke="none" fill="#DC382C" fill-rule="nonzero" />
			</g>
            <path d="M75.51 11.78L85.17 8.61L82.55 14.87L92.38 18.55L79.71 19.87L76.86 26.71L72.28 19.08L57.63 17.76L68.57 13.82L65.28 7.76L75.51 11.78L75.51 11.78L75.51 11.78L75.51 11.78" stroke="none" fill="#FFFFFF" fill-rule="nonzero" />
            <path d="M76.12 51.71L52.44 41.88L86.36 36.67L76.12 51.71L76.12 51.71L76.12 51.71L76.12 51.71" stroke="none" fill="#FFFFFF" fill-rule="nonzero" />
            <path transform="matrix(1 0 0 1 0.01 0.01)"  d="M43.28 22.34C 53.28 22.34 61.409996 25.49 61.409996 29.34C 61.409996 33.190002 53.259995 36.34 43.28 36.34C 33.300003 36.34 25.14 33.19 25.14 29.34C 25.14 25.490002 33.27 22.34 43.28 22.34z" stroke="none" fill="#FFFFFF" fill-rule="nonzero" />
            <path d="M107.39 20.42L127.46 28.35L107.41 36.28L107.39 20.42L107.39 20.42L107.39 20.42L107.39 20.42" stroke="none" fill="#741113" fill-rule="nonzero" />
            <path d="M107.39 20.42L107.41 36.28L105.23 37.13L85.17 29.2L107.39 20.42L107.39 20.42L107.39 20.42L107.39 20.42" stroke="none" fill="#AC2724" fill-rule="nonzero" />
		</g>
	</g>
</g>
</svg>